<svg xmlns="http://www.w3.org/2000/svg" version="1.1" xmlns:xlink="http://www.w3.org/1999/xlink" xmlns:svgjs="http://svgjs.com/svgjs" width="512" height="512" x="0" y="0" viewBox="0 0 512 512" style="enable-background:new 0 0 512 512" xml:space="preserve" class=""><g><g xmlns="http://www.w3.org/2000/svg"><path d="m307.524 273.208c3.487 2.212 4.536 6.833 2.353 10.32-2.212 3.487-6.833 4.536-10.32 2.353l-30.532-19.193c-3.998-2.495-8.164-4.677-12.445-6.549-8.108-3.544-17.01-6.039-25.77-7.201-3.317-.425-6.775-.708-10.319-.794l-20.27 16.216c.255.227.511.425.766.623 20.213 16.868 35.75 37.989 35.75 56.672v72.434c0 4.139-3.346 7.512-7.513 7.512-4.139 0-7.485-3.373-7.485-7.512v-72.434c0-13.835-13.183-30.901-30.306-45.162-15.366-12.814-40.568-28.378-59.45-28.378-10.093 0-20.157 1.559-29.795 4.678-9.725 3.147-18.825 7.796-26.961 13.693-3.345 2.409-8.022 1.644-10.433-1.702-2.41-3.345-1.644-8.023 1.701-10.433 9.384-6.775 19.874-12.162 31.128-15.791 8.59-2.806 17.605-4.564 26.876-5.188v-26.592c-3.175-2.41-6.208-5.018-9.016-7.824-15.252-15.252-24.721-36.316-24.721-59.478v-9.271h-5.528c-6.492 0-12.361-2.637-16.642-6.918-4.252-4.252-6.889-10.121-6.889-16.613 0-6.493 2.637-12.361 6.889-16.642 4.281-4.253 10.149-6.889 16.642-6.889h5.528v-45.783c0-11.397 4.649-21.744 12.134-29.228 7.796-7.796 18.256-12.134 29.256-12.134h85.645c11.396 0 21.745 4.621 29.229 12.134 7.513 7.484 12.161 17.86 12.161 29.228v45.786h5.528c6.492 0 12.361 2.636 16.613 6.889 4.281 4.281 6.918 10.149 6.918 16.642 0 6.492-2.637 12.36-6.918 16.613-4.252 4.281-10.121 6.918-16.613 6.918h-5.528v9.271c0 23.162-9.468 44.226-24.72 59.478-2.835 2.806-5.84 5.415-9.016 7.824v26.592c2.41.17 4.849.425 7.286.737 10.377 1.389 20.185 4.111 29.795 8.307 4.989 2.183 9.78 4.706 14.402 7.569zm112.153-17.236c5.925-6.379 13.324-10.518 21.177-12.332 1.078-.255 2.212-.482 3.318-.652v-17.209h-3.346c-4.195 0-8.023-1.701-10.773-4.479-2.778-2.749-4.479-6.548-4.479-10.772v-52.818c0-4.196 1.701-8.023 4.479-10.772 2.75-2.778 6.578-4.479 10.773-4.479h3.346v-17.804c0-4.139 3.373-7.484 7.512-7.484 4.14 0 7.484 3.345 7.484 7.484v17.804h3.374c4.195 0 7.995 1.701 10.772 4.479 2.75 2.749 4.451 6.577 4.451 10.772v52.816c0 4.224-1.701 8.023-4.451 10.772-2.777 2.779-6.577 4.479-10.772 4.479h-3.374v17.662c7.484 1.587 14.147 5.075 19.761 10.263 8.505 7.881 13.013 18.456 13.438 29.172.426 11.028-3.629 22.027-11.142 30.107-24.977 26.847-50.774 53.638-75.212 80.854-6.805 7.343-15.848 11.851-25.373 13.098-9.725 1.276-19.506-.878-27.783-6.124l-62.03-38.301v134.236c0 4.65-1.304 8.335-4.054 11.114-2.751 2.778-6.436 4.139-11.199 4.139-80.229 0-160.487 0-240.718 0-4.763 0-8.42-1.446-11.113-4.139-2.835-2.835-4.139-6.606-4.139-11.114v-147.25c0-11.935 1.899-23.473 5.443-34.359 3.629-11.255 9.016-21.745 15.791-31.128 2.41-3.346 7.087-4.111 10.433-1.701 3.346 2.409 4.111 7.087 1.701 10.433-5.868 8.136-10.545 17.237-13.692 26.96-3.034 9.355-4.678 19.363-4.678 29.796v147.505h54.148v-147.502c0-4.139 3.374-7.484 7.513-7.484s7.484 3.345 7.484 7.484v147.505h117.992v-64.95c0-4.139 3.346-7.484 7.485-7.484 4.167 0 7.513 3.346 7.513 7.484v64.95h39.094v-140.163c0-4.592 1.446-9.27 5.727-11.538 3.686-1.956 7.797-1.389 12.276 1.503 22.34 13.778 44.82 27.329 66.962 41.362 5.557 3.487 11.879 4.734 17.917 3.94 6.096-.822 11.907-3.686 16.272-8.42 19.193-20.355 38.216-40.937 57.239-61.491-13.154-12.247-26.338-24.523-39.52-36.77l-32.546 34.984c-2.637 2.835-6.152 4.819-10.064 5.301-3.657.454-8.392-.596-11.453-2.693l-30.335-19.051c-3.486-2.212-4.536-6.832-2.324-10.319 2.183-3.487 6.804-4.536 10.319-2.353l30.221 19.022c1.729.879 1.956.681 3.175-.652 16.668-17.915 33.338-35.805 49.98-53.693zm3.232 18.484 39.52 36.77c2.607-2.807 5.216-5.613 7.824-8.42 4.876-5.245 7.428-12.247 7.173-19.391-.283-6.889-3.176-13.693-8.647-18.74-6.549-6.095-15.791-8.505-24.551-6.463-5.358 1.275-9.896 3.969-13.637 7.995zm-184.246-172.793h5.528v-14.061h-13.778c.624 4.026 1.672 7.569 3.175 10.263 1.333 2.324 3.005 3.798 5.075 3.798zm5.528 14.997h-5.528c-8.221 0-14.175-4.423-18.144-11.482-2.693-4.791-4.394-10.943-5.16-17.605h-80.769c-.794 6.662-2.467 12.814-5.16 17.605-3.969 7.059-9.922 11.482-18.172 11.482h-5.5v19.136c9.158 2.835 19.221 5.102 29.938 6.747 12.332 1.871 25.543 2.891 39.265 2.891 13.75 0 26.932-1.021 39.293-2.891 10.716-1.645 20.752-3.913 29.938-6.747v-19.136zm0-44.056v-31.242c0-7.229-2.977-13.835-7.768-18.625-4.933-4.962-11.595-7.796-18.626-7.796h-85.645c-7.258 0-13.863 3.004-18.654 7.796-4.763 4.79-7.74 11.396-7.74 18.625v31.242zm-138.433 29.059h5.5c2.098 0 3.771-1.474 5.103-3.798 1.503-2.693 2.552-6.237 3.147-10.263h-13.75zm137.951 49.896c-8.533 2.381-17.662 4.337-27.245 5.812-13.069 1.985-27.018 3.062-41.504 3.062-14.458 0-28.407-1.077-41.477-3.062-9.582-1.474-18.71-3.43-27.272-5.812 1.871 15.819 9.128 30.051 19.873 40.795 12.559 12.531 29.853 20.327 48.875 20.327 19.051 0 36.345-7.796 48.903-20.327 10.747-10.744 18.004-24.976 19.847-40.795zm15.478-32.347h5.528c2.324 0 4.48-.964 6.011-2.523 1.559-1.531 2.522-3.686 2.522-6.01 0-2.354-.964-4.479-2.522-6.011-1.53-1.559-3.687-2.522-6.011-2.522h-5.528zm-168.425 0v-17.066h-5.528c-2.353 0-4.479.963-6.01 2.522-1.56 1.531-2.523 3.657-2.523 6.011 0 2.324.964 4.479 2.523 6.01 1.531 1.56 3.657 2.523 6.01 2.523zm44.566 12.389c-4.139 0-7.484-3.374-7.484-7.513s3.345-7.484 7.484-7.484h9.554c4.139 0 7.484 3.345 7.484 7.484s-3.345 7.513-7.484 7.513zm69.74 0c-4.139 0-7.513-3.374-7.513-7.513s3.374-7.484 7.513-7.484h9.526c4.139 0 7.513 3.345 7.513 7.484s-3.374 7.513-7.513 7.513zm235.502 26.109v52.816h22.198v-52.816zm-234.651 257.248c0 11.879-4.848 22.68-12.672 30.504-7.825 7.796-18.626 12.672-30.504 12.672s-22.68-4.876-30.505-12.672c-7.796-7.825-12.672-18.625-12.672-30.504v-57.692c0-4.224 1.729-8.023 4.479-10.772 2.778-2.778 6.577-4.479 10.773-4.479h55.849c4.196 0 8.023 1.701 10.773 4.479 2.75 2.75 4.479 6.548 4.479 10.772zm-14.997 0v-23.077h-56.331v23.077c0 7.74 3.146 14.77 8.278 19.874 5.103 5.131 12.134 8.307 19.874 8.307 7.739 0 14.77-3.175 19.902-8.307 5.102-5.104 8.277-12.134 8.277-19.874zm-56.331-57.692v19.618h56.331v-19.618zm4.904-137.469v17.917c14.516 2.211 32.206 10.319 48.393 21.404l22.567-18.059v-21.262c-10.801 5.074-22.822 7.881-35.494 7.881-12.644 0-24.665-2.806-35.466-7.881z" fill="#000000" data-original="#000000" class=""></path></g></g></svg>