<svg xmlns="http://www.w3.org/2000/svg" version="1.1" xmlns:xlink="http://www.w3.org/1999/xlink" xmlns:svgjs="http://svgjs.com/svgjs" width="512" height="512" x="0" y="0" viewBox="0 0 512 512" style="enable-background:new 0 0 512 512" xml:space="preserve" class=""><g>
<g xmlns="http://www.w3.org/2000/svg">
	<g>
		<g>
			<path d="M337.701,104.057c1.682,0,3.374-0.563,4.772-1.718l12.477-10.307c3.193-2.638,3.644-7.365,1.006-10.559     c-2.637-3.193-7.365-3.646-10.559-1.006L332.92,90.774c-3.193,2.638-3.644,7.365-1.006,10.559     C333.397,103.129,335.54,104.057,337.701,104.057z" fill="#000000" data-original="#000000" class=""></path>
			<path d="M385.041,431.236c15,0,27.202-12.203,27.202-27.202c0-14.999-12.203-27.201-27.202-27.201     c-14.999,0-27.202,12.202-27.202,27.201C357.839,419.033,370.041,431.236,385.041,431.236z M385.041,391.833     c6.729,0,12.202,5.474,12.202,12.201c0,6.728-5.474,12.202-12.202,12.202c-6.728,0-12.202-5.474-12.202-12.202     C372.839,397.307,378.313,391.833,385.041,391.833z" fill="#000000" data-original="#000000" class=""></path>
			<path d="M215.504,92.032l12.477,10.307c1.398,1.155,3.09,1.718,4.772,1.718c2.16,0,4.304-0.928,5.787-2.724     c2.638-3.193,2.188-7.921-1.006-10.559l-12.477-10.307c-3.194-2.641-7.921-2.188-10.559,1.006     C211.86,84.667,212.31,89.395,215.504,92.032z" fill="#000000" data-original="#000000" class=""></path>
			<path d="M285.227,80.43c4.142,0,7.5-3.357,7.5-7.5V58.527c0-4.143-3.358-7.5-7.5-7.5c-4.142,0-7.5,3.357-7.5,7.5v14.402     C277.727,77.072,281.085,80.43,285.227,80.43z" fill="#000000" data-original="#000000" class=""></path>
			<path d="M309.834,287.365c-4.142,0-7.5,3.357-7.5,7.5s3.358,7.5,7.5,7.5h22.093c4.142,0,7.5-3.357,7.5-7.5s-3.358-7.5-7.5-7.5     H309.834z" fill="#000000" data-original="#000000" class=""></path>
			<path d="M142.578,167.155h-24.183c-6.325,0-11.47,5.146-11.47,11.47v19.542H87.383c-6.325,0-11.47,5.145-11.47,11.471v24.182     c0,6.325,5.146,11.471,11.47,11.471h19.542v19.542c0,6.324,5.146,11.47,11.47,11.47h24.183c6.325,0,11.47-5.146,11.47-11.47     v-19.542h19.542c6.325,0,11.47-5.145,11.47-11.471v-24.182c0-6.325-5.145-11.471-11.47-11.471h-19.542v-19.542     C154.048,172.301,148.903,167.155,142.578,167.155z M170.06,213.167L170.06,213.167v17.123h-20.361     c-5.873,0-10.651,4.777-10.651,10.65v20.361h-17.123V240.94c0-5.873-4.778-10.65-10.65-10.65H90.913v-17.123h20.362     c5.873,0,10.65-4.777,10.65-10.65v-20.361h17.123v20.361c0,5.873,4.778,10.65,10.651,10.65H170.06z" fill="#000000" data-original="#000000" class=""></path>
			<path d="M489.787,252.953l-110.95-100.01c-8.477-7.643-19.432-11.852-30.845-11.852H328.38v-20.187     c0-16.364-13.314-29.678-29.678-29.678h-26.951c-16.365,0-29.678,13.313-29.678,29.678v20.187H52.752     C23.665,141.092,0,164.757,0,193.845v7.376c0,4.143,3.358,7.5,7.5,7.5s7.5-3.357,7.5-7.5v-7.376     c0-20.817,16.935-37.753,37.752-37.753h189.321v131.273H15v-51.637c0-4.142-3.358-7.5-7.5-7.5s-7.5,3.358-7.5,7.5v142.07     c0,18.602,15.134,33.735,33.736,33.735h32.401c3.685,27.863,27.578,49.44,56.431,49.44c28.853,0,52.746-21.577,56.431-49.44     H328.61c3.685,27.863,27.578,49.44,56.431,49.44c28.853,0,52.746-21.577,56.431-49.44h20.603c4.142,0,7.5-3.357,7.5-7.5     s-3.358-7.5-7.5-7.5h-20.603c-3.685-27.863-27.578-49.44-56.431-49.44c-28.853,0-52.746,21.577-56.431,49.44H178.998     c-3.685-27.863-27.578-49.44-56.431-49.44c-28.853,0-52.746,21.577-56.431,49.44h-32.4c-10.331,0-18.736-8.404-18.736-18.735     v-5.502h28.482c8.495,0,15.407-6.911,15.407-15.406v-24.118c0-0.137-0.017-0.27-0.021-0.406h172.73     c14.047,0,25.475-11.429,25.475-25.477V156.092h90.919c7.697,0,15.085,2.839,20.802,7.993l110.95,100.01     C490.71,273.98,497,288.118,497,302.882v14.484h-28.482c-8.495,0-15.407,6.911-15.407,15.406v24.118     c0,8.495,6.912,15.406,15.407,15.406H497v5.502c0,6.02-2.925,11.715-7.825,15.233c-3.365,2.416-4.133,7.102-1.717,10.467     c1.465,2.04,3.765,3.126,6.098,3.126c1.515,0,3.044-0.458,4.368-1.409c8.814-6.329,14.076-16.578,14.076-27.417v-74.917     C512,283.877,503.904,265.679,489.787,252.953z M385.041,362.094c23.126,0,41.94,18.814,41.94,41.94     c0,23.126-18.814,41.94-41.94,41.94c-23.126,0-41.94-18.814-41.94-41.94C343.101,380.908,361.915,362.094,385.041,362.094z      M122.567,362.094c23.126,0,41.94,18.814,41.94,41.94c0,23.126-18.814,41.94-41.94,41.94c-23.126,0-41.94-18.814-41.94-41.94     C80.627,380.908,99.441,362.094,122.567,362.094z M43.889,356.891c0,0.224-0.183,0.406-0.407,0.406H15v-24.931h28.482     c0.224,0,0.407,0.183,0.407,0.406V356.891z M242.073,306.89c0,5.776-4.699,10.477-10.476,10.477H15v-15.001h227.073V306.89z      M313.38,141.092h-56.307v-20.187c0-8.094,6.585-14.678,14.678-14.678h26.951c8.094,0,14.678,6.584,14.678,14.678V141.092z      M497,357.297h-28.482c-0.224,0-0.407-0.183-0.407-0.406v-24.118c0-0.224,0.183-0.406,0.407-0.406H497V357.297z" fill="#000000" data-original="#000000" class=""></path>
			<path d="M122.567,431.236c15,0,27.202-12.203,27.202-27.202c0-14.999-12.203-27.201-27.202-27.201     c-14.999,0-27.202,12.202-27.202,27.201C95.365,419.033,107.568,431.236,122.567,431.236z M122.567,391.833     c6.729,0,12.202,5.474,12.202,12.201c0,6.728-5.474,12.202-12.202,12.202c-6.729,0-12.202-5.474-12.202-12.202     C110.365,397.307,115.839,391.833,122.567,391.833z" fill="#000000" data-original="#000000" class=""></path>
			<path d="M422.247,254.946c3.111-8.099,0.958-17.085-5.486-22.893v0.001l-56.207-50.666c-5.526-4.982-12.667-7.726-20.108-7.726     H295.3c-11.461,0-20.785,9.324-20.785,20.785v53.044c0,11.462,9.324,20.786,20.785,20.786h107.544     C411.519,268.277,419.136,263.045,422.247,254.946z M289.515,247.491v-53.044c0-3.189,2.595-5.785,5.785-5.785h45.146     c3.724,0,7.298,1.373,10.064,3.866l56.207,50.667c2.739,2.469,1.861,5.501,1.527,6.371c-0.334,0.871-1.712,3.711-5.4,3.711H295.3     C292.11,253.277,289.515,250.682,289.515,247.491z" fill="#000000" data-original="#000000" class=""></path>
		</g>
	</g>
</g>
<g xmlns="http://www.w3.org/2000/svg">
</g>
<g xmlns="http://www.w3.org/2000/svg">
</g>
<g xmlns="http://www.w3.org/2000/svg">
</g>
<g xmlns="http://www.w3.org/2000/svg">
</g>
<g xmlns="http://www.w3.org/2000/svg">
</g>
<g xmlns="http://www.w3.org/2000/svg">
</g>
<g xmlns="http://www.w3.org/2000/svg">
</g>
<g xmlns="http://www.w3.org/2000/svg">
</g>
<g xmlns="http://www.w3.org/2000/svg">
</g>
<g xmlns="http://www.w3.org/2000/svg">
</g>
<g xmlns="http://www.w3.org/2000/svg">
</g>
<g xmlns="http://www.w3.org/2000/svg">
</g>
<g xmlns="http://www.w3.org/2000/svg">
</g>
<g xmlns="http://www.w3.org/2000/svg">
</g>
<g xmlns="http://www.w3.org/2000/svg">
</g>
</g></svg>