<svg xmlns="http://www.w3.org/2000/svg" version="1.1" xmlns:xlink="http://www.w3.org/1999/xlink" xmlns:svgjs="http://svgjs.com/svgjs" width="512" height="512" x="0" y="0" viewBox="0 0 64 64" style="enable-background:new 0 0 512 512" xml:space="preserve" class=""><g><g xmlns="http://www.w3.org/2000/svg" id="Outline"><path d="M61,36a1,1,0,0,0,1-1V19a1,1,0,0,0-1-1H51a1,1,0,0,0,0,2h9V34H40V20h7a1,1,0,0,0,0-2H39a1,1,0,0,0-1,1V35a1,1,0,0,0,1,1h7v4H35.925c.045-.691.075-1.361.075-2,0-10.654-4.832-19-11-19H13c-3.035,0-5.848,2.039-7.922,5.741a1,1,0,0,0,1.745.978C8.527,22.676,10.721,21,13,21h7.033C16.429,24.086,14,30.455,14,38a31.35,31.35,0,0,0,1.037,8H6a4.04,4.04,0,0,0-.85.095A28.747,28.747,0,0,1,4,38a28.449,28.449,0,0,1,1.33-8.787,1,1,0,1,0-1.9-.626,31.456,31.456,0,0,0-.093,18.45A3.979,3.979,0,0,0,2,50V61a1,1,0,0,0,1,1H7a1,1,0,0,0,0-2H4V50a2,2,0,0,1,2-2H20a2,2,0,0,1,2,2V60H11a1,1,0,0,0,0,2H31a1,1,0,0,0,1-1V52.718A19.612,19.612,0,0,0,34.362,48H37.5L40,51.333v5.431l-1.9,3.789A1,1,0,0,0,39,62H56a1,1,0,0,0,.8-1.6L54,56.667V51.236L55.618,48H57a1,1,0,0,0,0-2H21.287a21.67,21.67,0,0,1-.99-4H60v5a1,1,0,0,0,2,0V41a1,1,0,0,0-1-1H54V36ZM16,38c0-9.215,4.122-17,9-17s9,7.785,9,17c0,.634-.032,1.3-.08,2H27.9A5.009,5.009,0,0,0,23,36H20.081C20.589,29.114,23.6,25,25,25c1.322,0,4.7,4.217,4.974,12.035a1,1,0,1,0,2-.07C31.687,28.735,28.068,23,25,23c-3.3,0-7,6.415-7,15a26.227,26.227,0,0,0,1.179,8H17.11A29.047,29.047,0,0,1,16,38Zm7.444,10h4.4c-1.114,2.147-2.282,3-2.841,3a1.823,1.823,0,0,1-1-.508V50A3.959,3.959,0,0,0,23.444,48ZM24,60V56.91A6.613,6.613,0,0,0,25,57a7.575,7.575,0,0,0,5-2.019V60Zm1-5a4.682,4.682,0,0,1-1-.122V52.787A2.874,2.874,0,0,0,25,53c1.779,0,3.677-1.908,5.052-5h2.177C30.524,52.349,27.826,55,25,55Zm27-3v4H50V52Zm-4,4H46V52h2Zm-4,0H42V52h2Zm-3.382,4,1-2H52.5L54,60ZM53.382,48l-1,2H41.5L40,48ZM20,38h3a3,3,0,0,1,2.816,2H20.08C20.033,39.363,20,38.705,20,38Zm32,2H48V36h4Z" fill="#000000" data-original="#000000" class=""></path><path d="M48,23a1,1,0,0,0-1-1H43a1,1,0,0,0-1,1v4a1,1,0,0,0,1,1h4a1,1,0,0,0,1-1Zm-2,3H44V24h2Z" fill="#000000" data-original="#000000" class=""></path><path d="M57,24a1,1,0,0,0,0-2H53a1,1,0,0,0,0,2Z" fill="#000000" data-original="#000000" class=""></path><path d="M50,27a1,1,0,0,0,1,1h7a1,1,0,0,0,0-2H51A1,1,0,0,0,50,27Z" fill="#000000" data-original="#000000" class=""></path><path d="M55,30a1,1,0,0,0,0,2h2a1,1,0,0,0,0-2Z" fill="#000000" data-original="#000000" class=""></path><path d="M47,30H43a1,1,0,0,0,0,2h4a1,1,0,0,0,0-2Z" fill="#000000" data-original="#000000" class=""></path><circle cx="51" cy="31" r="1" fill="#000000" data-original="#000000" class=""></circle><path d="M18,53a1,1,0,0,0,0-2H8a1,1,0,0,0,0,2Z" fill="#000000" data-original="#000000" class=""></path><path d="M6,57a1,1,0,0,0,1,1H18a1,1,0,0,0,0-2H7A1,1,0,0,0,6,57Z" fill="#000000" data-original="#000000" class=""></path><path d="M7,43h4a1,1,0,0,0,0-2H7a1,1,0,0,0,0,2Z" fill="#000000" data-original="#000000" class=""></path><path d="M6,38a1,1,0,0,0,1,1h4a1,1,0,0,0,0-2H7A1,1,0,0,0,6,38Z" fill="#000000" data-original="#000000" class=""></path><path d="M7,31a3,3,0,1,0,3-3A3,3,0,0,0,7,31Zm4,0a1,1,0,1,1-1-1A1,1,0,0,1,11,31Z" fill="#000000" data-original="#000000" class=""></path><path d="M14,26a1,1,0,0,0,0-2H11a1,1,0,0,0,0,2Z" fill="#000000" data-original="#000000" class=""></path></g></g></svg>