<svg xmlns="http://www.w3.org/2000/svg" version="1.1" xmlns:xlink="http://www.w3.org/1999/xlink" xmlns:svgjs="http://svgjs.com/svgjs" width="512" height="512" x="0" y="0" viewBox="0 0 512 512" style="enable-background:new 0 0 512 512" xml:space="preserve" class=""><g><path xmlns="http://www.w3.org/2000/svg" d="M248,48H120a8,8,0,0,0-8,8v64a8,8,0,0,0,8,8H248a8,8,0,0,0,8-8V56A8,8,0,0,0,248,48Zm-8,64H128V64H240Z" fill="#000000" data-original="#000000" class=""></path><path xmlns="http://www.w3.org/2000/svg" d="M192,256H112a8,8,0,0,0,0,16h80a8,8,0,0,0,0-16Z" fill="#000000" data-original="#000000" class=""></path><path xmlns="http://www.w3.org/2000/svg" d="M184,288H104a8,8,0,0,0,0,16h80a8,8,0,0,0,0-16Z" fill="#000000" data-original="#000000" class=""></path><path xmlns="http://www.w3.org/2000/svg" d="M256,272a8,8,0,0,0,0-16H224a8,8,0,0,0,0,16Z" fill="#000000" data-original="#000000" class=""></path><path xmlns="http://www.w3.org/2000/svg" d="M264,288H232a8,8,0,0,0,0,16h32a8,8,0,0,0,0-16Z" fill="#000000" data-original="#000000" class=""></path><path xmlns="http://www.w3.org/2000/svg" d="M455.155,92.422C454.11,90.332,443.908,72,408,72s-46.11,18.332-47.155,20.422A7.994,7.994,0,0,0,360,96v47.438a23.951,23.951,0,0,0,10.688,19.968L384,172.281V216a24.039,24.039,0,0,0,16,22.624V272a16.019,16.019,0,0,1-16,16H360a16.019,16.019,0,0,1-16-16v-8a32.036,32.036,0,0,0-32-32H291.609l-3.789-17.68A7.994,7.994,0,0,0,280,208H236.11l-4.219-25.315A8,8,0,0,0,224,176h-8V160h64a8,8,0,0,0,8-8V24a8,8,0,0,0-8-8H88a8,8,0,0,0-8,8V152a8,8,0,0,0,8,8h64v16h-8a8,8,0,0,0-7.891,6.685L131.89,208H88a7.994,7.994,0,0,0-7.82,6.32l-24,112A8,8,0,0,0,64,336H88v64a24.027,24.027,0,0,0-24,24v16a8,8,0,0,0,4.721,7.292A32,32,0,1,0,123.7,448h120.61a32,32,0,1,0,54.974-.708A8,8,0,0,0,304,440V424a24.027,24.027,0,0,0-24-24V336h24a8,8,0,0,0,7.82-9.68L295.037,248H312a16.019,16.019,0,0,1,16,16v8a32.036,32.036,0,0,0,32,32h24a32.036,32.036,0,0,0,32-32V238.624A24.039,24.039,0,0,0,432,216V172.281l13.313-8.875A23.953,23.953,0,0,0,456,143.438V96A7.994,7.994,0,0,0,455.155,92.422ZM96,32H272V144H96Zm72,128h32v16H168Zm-17.223,32h66.446l5.333,32H145.444ZM112,464a16,16,0,1,1-16-16A16.019,16.019,0,0,1,112,464Zm160,16a16,16,0,1,1,16-16A16.019,16.019,0,0,1,272,480Zm16-56v8H80v-8a8.009,8.009,0,0,1,8-8H280A8.009,8.009,0,0,1,288,424ZM152,400H136V368h16Zm80,0H216V368h16Zm32,0H248V360a8,8,0,0,0-8-8H208a8,8,0,0,0-8,8v40H168V360a8,8,0,0,0-8-8H128a8,8,0,0,0-8,8v40H104V336H264ZM73.9,320l20.57-96h34.753l-1.114,6.685A8,8,0,0,0,136,240h96a8,8,0,0,0,7.891-9.315L238.777,224H273.53l20.57,96ZM408,88c21,0,29.416,7.408,32,10.476V112.52a64.354,64.354,0,0,0-64,0V98.476C378.584,95.408,387,88,408,88Zm28.438,62.094-16.876,11.25A8,8,0,0,0,416,168v48a8,8,0,0,1-16,0V168a8,8,0,0,0-3.562-6.656l-16.875-11.25A7.985,7.985,0,0,1,376,143.438V131.659c4.812-3.8,16.605-11.659,32-11.659s27.188,7.854,32,11.659v11.779A7.987,7.987,0,0,1,436.438,150.094Z" fill="#000000" data-original="#000000" class=""></path></g></svg>