<svg xmlns="http://www.w3.org/2000/svg" version="1.1" xmlns:xlink="http://www.w3.org/1999/xlink" xmlns:svgjs="http://svgjs.com/svgjs" width="512" height="512" x="0" y="0" viewBox="0 0 512 512" style="enable-background:new 0 0 512 512" xml:space="preserve" class=""><g><g xmlns="http://www.w3.org/2000/svg"><path d="m171.835 168.339c-4.142 0-7.5 3.358-7.5 7.5v8.016c0 4.142 3.358 7.5 7.5 7.5s7.5-3.358 7.5-7.5v-8.016c0-4.142-3.358-7.5-7.5-7.5z" fill="#000000" data-original="#000000" class=""></path><path d="m179.851 144.291h-16.032c-4.142 0-7.5 3.358-7.5 7.5s3.358 7.5 7.5 7.5h16.032c4.142 0 7.5-3.358 7.5-7.5s-3.358-7.5-7.5-7.5z" fill="#000000" data-original="#000000" class=""></path><path d="m299.172 223.419c4.142 0 7.46-3.358 7.46-7.5s-3.398-7.5-7.54-7.5-7.5 3.358-7.5 7.5 3.358 7.5 7.5 7.5z" fill="#000000" data-original="#000000" class=""></path><path d="m258.274 228.946c0 4.142 3.358 7.5 7.5 7.5h.08c4.142 0 7.46-3.358 7.46-7.5s-3.398-7.5-7.54-7.5-7.5 3.358-7.5 7.5z" fill="#000000" data-original="#000000" class=""></path><path d="m287.989 244.492c-4.142 0-7.5 3.358-7.5 7.5s3.358 7.5 7.5 7.5h.08c4.142 0 7.46-3.358 7.46-7.5s-3.398-7.5-7.54-7.5z" fill="#000000" data-original="#000000" class=""></path><path d="m482.152 345.036-76.377-54.816c-3.366-2.417-7.474-3.378-11.563-2.706-4.09.672-7.673 2.897-10.09 6.264l-.301.419-17.865-12.822c8.743-14.434 13.781-31.351 13.781-49.423 0-31.415-15.22-59.34-38.672-76.794l5.877-58.774c1.974-19.744-2.857-39.665-13.586-56.259 4.06-10.089 6.301-21.1 6.301-32.625 0-4.142-3.358-7.5-7.5-7.5h-151.906c-24.719 0-48.41 10.512-64.997 28.84s-24.689 42.947-22.23 67.544l6.444 64.434c-12.208 2.271-21.954 12.101-23.169 24.23-.778 7.771 1.764 15.531 6.974 21.289 5.213 5.762 12.658 9.067 20.425 9.067h5.598c4.399 31.522 22.003 58.87 47.023 76.264v34.517c0 7.291-4.885 13.819-11.879 15.876l-84.486 24.849c-23.498 6.912-39.909 28.845-39.909 53.338v84.252c0 4.142 3.358 7.5 7.5 7.5s7.5-3.358 7.5-7.5v-84.254c0-17.885 11.983-33.901 29.142-38.947l16.933-4.98c13.421 18.818 32.73 34.569 56.046 45.64 24.657 11.708 53.277 17.896 82.766 17.896 58.108 0 110.8-24.232 138.833-63.531l16.913 4.974c17.158 5.046 29.142 21.062 29.142 38.947v84.255c0 4.142 3.358 7.5 7.5 7.5s7.5-3.358 7.5-7.5v-84.254c0-24.493-16.411-46.426-39.909-53.338l-84.486-24.849c-6.53-1.921-11.218-7.739-11.812-14.436.15.001.299.006.449.006 29.309 0 55.578-13.251 73.142-34.073l17.872 12.827-.301.419c-2.417 3.367-3.378 7.474-2.706 11.563s2.896 7.672 6.264 10.089l76.377 54.817c4.146 2.975 8.938 4.406 13.689 4.406 7.33 0 14.56-3.407 19.15-9.803 7.566-10.54 5.145-25.271-5.397-32.838zm-355.776-306.131c13.749-15.192 33.385-23.905 53.875-23.905h144.022c-3.764 36.557-34.742 65.161-72.277 65.161h-88.178c-21.816 0-39.564 17.749-39.564 39.564v32.065c0 4.705-3.828 8.532-8.532 8.532h-1.229l-6.543-65.431c-2.038-20.388 4.678-40.794 18.426-55.986zm-3.154 160.982c0-4.142-3.358-7.5-7.5-7.5s-7.5 3.358-7.5 7.5v.516h-4.524c-3.537 0-6.927-1.506-9.303-4.131-2.407-2.66-3.533-6.115-3.17-9.729.63-6.292 6.612-11.221 13.618-11.221h10.88c12.976 0 23.532-10.557 23.532-23.532v-32.065c0-13.545 11.02-24.564 24.564-24.564h88.178c30.477 0 57.367-15.637 73.08-39.306 5.913 12.048 8.307 25.369 6.941 39.037l-5.151 51.51c-3.595-1.806-7.319-3.391-11.153-4.739v-21.937c0-4.632-.795-9.172-2.363-13.493-1.413-3.894-5.717-5.904-9.608-4.492-3.894 1.413-5.905 5.715-4.492 9.608.971 2.676 1.463 5.495 1.463 8.377v18.002c-5.41-.953-10.974-1.453-16.652-1.453-52.757 0-95.678 42.92-95.678 95.677 0 24.789 9.477 47.405 24.997 64.418-50.282-3.38-90.159-45.359-90.159-96.483zm167.97 156.563 17.599 5.176c-7.804 7.141-17.273 13.37-27.881 18.284-3.759 1.741-5.394 6.199-3.653 9.958 1.269 2.738 3.979 4.35 6.81 4.35 1.055 0 2.127-.224 3.147-.697 14.948-6.925 27.987-16.24 37.969-27.073l18.212 5.356c-25.955 32.926-72.286 53.051-123.463 53.051-51.018 0-97.509-20.159-123.463-53.051l18.203-5.354c23.843 25.947 62.866 41.34 105.261 41.34 11.384 0 22.673-1.117 33.555-3.319 4.06-.822 6.685-4.779 5.863-8.839s-4.78-6.684-8.839-5.863c-9.904 2.005-20.192 3.021-30.579 3.021-35.181 0-67.55-11.499-88.878-31.158l17.619-5.182c13.334-3.922 22.646-16.368 22.646-30.267v-25.733c14.705 7.137 31.199 11.146 48.613 11.146 2.859 0 5.749-.109 8.588-.325.568-.043 1.115-.154 1.638-.315 11.301 7.735 24.338 13.108 38.395 15.409.08 13.825 9.362 26.181 22.638 30.085zm-7.131-43.821c-44.486 0-80.678-36.192-80.678-80.677s36.192-80.677 80.678-80.677c44.485 0 80.677 36.192 80.677 80.677s-36.191 80.677-80.677 80.677zm102.809 3.304c-.035-.211.059-.342.09-.385l9.348-13.024c.031-.043.125-.174.335-.208.032-.005.062-.008.09-.008.158 0 .258.072.294.098l15.024 10.783-9.95 13.864-15.024-10.783c-.041-.032-.172-.126-.207-.337zm88.493 53.196c-2.743 3.823-8.084 4.7-11.907 1.957l-49.166-35.287 9.95-13.864 49.166 35.287c3.822 2.744 4.7 8.085 1.957 11.907z" fill="#000000" data-original="#000000" class=""></path><path d="m340.021 201.685c-1.974-3.642-6.524-4.995-10.167-3.021-3.642 1.974-4.994 6.525-3.021 10.167 3.821 7.052 5.841 15.047 5.841 23.12 0 26.805-21.808 48.613-48.613 48.613-26.806 0-48.613-21.808-48.613-48.613s21.808-48.613 48.613-48.613c8.073 0 16.068 2.02 23.12 5.84 3.643 1.974 8.194.62 10.167-3.021 1.973-3.642.621-8.194-3.021-10.167-9.239-5.006-19.705-7.652-30.266-7.652-35.077 0-63.613 28.537-63.613 63.613s28.537 63.613 63.613 63.613 63.613-28.537 63.613-63.613c0-10.56-2.646-21.026-7.653-30.266z" fill="#000000" data-original="#000000" class=""></path></g></g></svg>